<svg width="1024" height="600" fill="none" xmlns="http://www.w3.org/2000/svg"><g clip-path="url(#prefix__clip0_9_866)"><path fill="#A0A0A0" d="M0 0h1024v600H0z"/><path stroke="#919191" d="M1472 12.5H-448M1472 28.5H-448M1472 44.5H-448M1472 60.5H-448M1472 76.5H-448M1472 92.5H-448M1472 108.5H-448M1472 124.5H-448M1472 140.5H-448M1472 156.5H-448M1472 172.5H-448M1472 188.5H-448M1472 204.5H-448M1472 220.5H-448M1472 236.5H-448M1472 252.5H-448M1472 268.5H-448M1472 284.5H-448M1472 300.5H-448M1472 316.5H-448M1472 332.5H-448M1472 348.5H-448M1472 364.5H-448M1472 380.5H-448M1472 396.5H-448M1472 412.5H-448M1472 428.5H-448M1472 444.5H-448M1472 460.5H-448M1472 476.5H-448M1472 492.5H-448M1472 508.5H-448M1472 524.5H-448M1472 540.5H-448M1472 556.5H-448M1472 572.5H-448M1472 588.5H-448M.5-180v960M16.5-180v960M32.5-180v960M48.5-180v960M64.5-180v960M80.5-180v960M96.5-180v960M112.5-180v960M128.5-180v960M144.5-180v960M160.5-180v960M176.5-180v960M192.5-180v960M208.5-180v960M224.5-180v960M240.5-180v960M256.5-180v960M272.5-180v960M288.5-180v960M304.5-180v960M320.5-180v960M336.5-180v960M352.5-180v960M368.5-180v960M384.5-180v960M400.5-180v960M416.5-180v960M432.5-180v960M448.5-180v960M464.5-180v960M480.5-180v960M496.5-180v960M512.5-180v960M528.5-180v960M544.5-180v960M560.5-180v960M576.5-180v960M592.5-180v960M608.5-180v960M624.5-180v960M640.5-180v960M656.5-180v960M672.5-180v960M688.5-180v960M704.5-180v960M720.5-180v960M736.5-180v960M752.5-180v960M768.5-180v960M784.5-180v960M800.5-180v960M816.5-180v960M832.5-180v960M848.5-180v960M864.5-180v960M880.5-180v960M896.5-180v960M912.5-180v960M928.5-180v960M944.5-180v960M960.5-180v960M976.5-180v960M992.5-180v960M1008.5-180v960"/></g><defs><clipPath id="prefix__clip0_9_866"><path fill="#fff" d="M0 0h1024v600H0z"/></clipPath></defs></svg>