<svg width="13" height="12" fill="none" xmlns="http://www.w3.org/2000/svg"><path d="M4.71 5.712c-.36 0-.653.272-.653.607 0 .336.293.608.654.608.361 0 .654-.272.654-.608 0-.335-.293-.607-.654-.607zm3.142 0c-.362 0-.655.272-.655.607 0 .336.293.608.655.608.36 0 .654-.272.654-.608 0-.335-.293-.607-.654-.607zM6.282.972c-2.89 0-5.235 2.178-5.235 4.861 0 2.684 2.345 4.861 5.234 4.861 2.89 0 5.235-2.177 5.235-4.86C11.516 3.15 9.17.971 6.28.971zm0 8.75c-2.31 0-4.188-1.745-4.188-3.889 0-.14.01-.282.026-.418 1.235-.51 2.214-1.448 2.727-2.61.947 1.244 2.507 2.056 4.271 2.056.409 0 .801-.044 1.178-.126.11.345.173.714.173 1.098 0 2.144-1.88 3.89-4.188 3.89z" fill="#000"/></svg>