<svg width="40" height="20" fill="none" xmlns="http://www.w3.org/2000/svg"><path d="M36.094 10H20v8h16.094c.863 0 1.562-.597 1.562-1.333v-5.334c0-.736-.699-1.333-1.562-1.333z" fill="#FF7B79"/><path d="M39.219 12.667v2.666h-1.563c-.863 0-1.562-.596-1.562-1.333s.699-1.333 1.562-1.333h1.563z" fill="#FFDA8F"/><path d="M31.172 6h3.125v4h-3.125V6zM32.734 19.333c.863 0 1.563-.596 1.563-1.333 0-.736-.7-1.333-1.563-1.333s-1.562.597-1.562 1.333.7 1.333 1.562 1.333z" fill="#EEFAFF"/><path d="M29.61.667v2.666H20V.667h9.61z" fill="#FF7B79"/><path d="M23.125 3.333h4.922V10h-4.922V3.333zM24.922 19.333c.863 0 1.562-.596 1.562-1.333 0-.736-.7-1.333-1.562-1.333-.863 0-1.563.597-1.563 1.333s.7 1.333 1.563 1.333z" fill="#EEFAFF"/><path d="M20 3.333h3.125V10H20V3.333z" fill="#8690A6"/><path d="M.781 14v4h16.094v-4H.781z" fill="#FF7B79"/><path d="M16.875 11.333V14H.781v-2.667h16.094z" fill="#EEFAFF"/><path d="M.781 3.333c0-1.472 1.634-2.666 3.36-2.666h9.609c1.726 0 3.125 1.194 3.125 2.666-.97 0-1.2.667-2.188.667-.984 0-.984-.667-1.953-.667-.968 0-.968.667-1.953.667-.984 0-.984-.667-1.953-.667-.969 0-.969.667-1.953.667-.984 0-.984-.667-1.953-.667-.969 0-1.203.667-2.188.667-.984 0-.984-.667-1.953-.667z" fill="#FF7B79"/><path d="M11.953 19.333c.863 0 1.563-.596 1.563-1.333 0-.736-.7-1.333-1.563-1.333s-1.562.597-1.562 1.333.7 1.333 1.562 1.333zM5.703 19.333c.863 0 1.563-.596 1.563-1.333 0-.736-.7-1.333-1.563-1.333S4.141 17.264 4.141 18s.7 1.333 1.562 1.333z" fill="#EEFAFF"/><path d="M39.219 12h-.782v-.667c0-1.103-1.05-2-2.343-2h-1.016V6c0-.368-.35-.667-.781-.667h-3.125c-.432 0-.781.299-.781.667v3.333h-1.563V4h.781c.432 0 .782-.299.782-.667V.667c0-.368-.35-.667-.782-.667H20c-.431 0-.781.299-.781.667v14h-1.563v-3.334c0-.368-.35-.666-.781-.666h-.781V4.29c.334-.18.49-.291.781-.291.431 0 .781-.299.781-.667C17.656 1.495 15.904 0 13.75 0H4.14C3.113 0 2.074.348 1.29.954.457 1.597 0 2.442 0 3.334 0 3.7.35 4 .781 4c.209 0 .272.043.48.185.085.058.184.125.302.19v6.292H.78c-.431 0-.781.298-.781.666V18c0 .368.35.667.781.667h2.713c.322.776 1.19 1.333 2.21 1.333 1.018 0 1.886-.557 2.208-1.333h1.832c.322.776 1.19 1.333 2.21 1.333 1.018 0 1.886-.557 2.208-1.333h2.713c.431 0 .781-.299.781-.667v-2h1.563v2c0 .368.35.667.781.667h2.712c.323.776 1.191 1.333 2.21 1.333 1.018 0 1.887-.557 2.21-1.333h3.393c.323.776 1.19 1.333 2.21 1.333 1.018 0 1.886-.557 2.209-1.333h1.15c1.292 0 2.343-.898 2.343-2V16h.782c.431 0 .781-.299.781-.667v-2.666c0-.368-.35-.667-.781-.667zM4.14 1.333h9.609c1.078 0 1.989.625 2.26 1.473-.642.217-.85.527-1.323.527-.22 0-.29-.047-.497-.189-.278-.19-.7-.477-1.456-.477s-1.177.287-1.455.477c-.208.142-.278.19-.498.19-.22 0-.29-.048-.497-.19-.279-.19-.7-.477-1.456-.477s-1.177.287-1.456.477c-.207.142-.277.19-.497.19-.22 0-.29-.048-.497-.19-.279-.19-.7-.477-1.456-.477-.713 0-1.172.253-1.508.437-.288.16-.426.23-.68.23l-.01-.001a.876.876 0 00-.322-.082c-.172-.1-.393-.292-.743-.428.316-.827 1.357-1.49 2.482-1.49zM3.125 4.64c.508-.07.863-.265 1.136-.415.283-.156.419-.225.66-.225.21 0 .272.043.48.185.281.192.706.482 1.474.482s1.193-.29 1.473-.482c.209-.142.272-.185.48-.185.208 0 .271.043.48.185.28.192.705.482 1.473.482.768 0 1.193-.29 1.474-.482.208-.142.271-.185.48-.185.208 0 .27.043.48.185.26.178.646.441 1.316.477v6.005h-1.797v-2c0-.368-.35-.667-.78-.667-.432 0-.782.299-.782.667v2H9.609v-2c0-.368-.35-.667-.78-.667-.432 0-.782.299-.782.667v2H6.484v-2c0-.368-.35-.667-.78-.667-.432 0-.782.299-.782.667v2H3.125V4.64zm2.578 14.027c-.43 0-.781-.3-.781-.667 0-.368.35-.667.781-.667.43 0 .781.3.781.667 0 .368-.35.667-.78.667zm6.25 0c-.43 0-.781-.3-.781-.667 0-.368.35-.667.781-.667.43 0 .781.3.781.667 0 .368-.35.667-.78.667zm4.14-1.334h-1.93C13.84 16.557 12.971 16 11.953 16c-1.018 0-1.887.557-2.21 1.333h-1.83C7.59 16.557 6.721 16 5.702 16c-1.018 0-1.887.557-2.21 1.333h-1.93v-2.666h3.75c.43 0 .78-.299.78-.667 0-.368-.35-.667-.78-.667h-3.75V12h14.53v1.333h-3.75c-.43 0-.78.299-.78.667 0 .368.35.667.78.667h3.75v2.666zm15.86-10.666h1.563v2.666h-1.563V6.667zm-4.687 2.666h-3.36V4h3.36v5.333zm-6.485 0V4h1.563v5.333H20.78zm0-8h8.047v1.334h-8.047V1.333zm4.14 17.334c-.43 0-.78-.3-.78-.667 0-.368.35-.667.78-.667.432 0 .782.3.782.667 0 .368-.35.667-.781.667zm7.813 0c-.43 0-.78-.3-.78-.667 0-.368.35-.667.78-.667.431 0 .782.3.782.667 0 .368-.35.667-.782.667zm3.36-1.334h-1.15C34.62 16.557 33.753 16 32.734 16c-1.018 0-1.887.557-2.209 1.333h-3.394c-.322-.776-1.19-1.333-2.21-1.333-1.018 0-1.886.557-2.209 1.333h-1.93v-6.666h15.312c.43 0 .781.299.781.666v.782c-.91.275-1.563 1.016-1.563 1.885 0 .87.654 1.61 1.563 1.885v.782c0 .367-.35.666-.781.666zm2.343-2.666h-.78c-.431 0-.782-.3-.782-.667 0-.368.35-.667.781-.667h.782v1.334z" fill="#000"/><path d="M29.61 12c-.432 0-.782.299-.782.667V14c0 .368.35.667.781.667.432 0 .782-.299.782-.667v-1.333c0-.368-.35-.667-.782-.667zM32.734 12c-.431 0-.78.299-.78.667V14c0 .368.349.667.78.667.432 0 .782-.299.782-.667v-1.333c0-.368-.35-.667-.782-.667zM26.484 12c-.431 0-.78.299-.78.667V14c0 .368.349.667.78.667.432 0 .782-.299.782-.667v-1.333c0-.368-.35-.667-.782-.667zM23.36 12c-.432 0-.782.299-.782.667V14c0 .368.35.667.781.667.432 0 .782-.299.782-.667v-1.333c0-.368-.35-.667-.782-.667zM8.828 14.667c.432 0 .781-.299.781-.667 0-.368-.35-.667-.78-.667-.432 0-.782.299-.782.667 0 .368.35.667.781.667z" fill="#000"/></svg>