<svg width="34" height="36" fill="none" xmlns="http://www.w3.org/2000/svg"><g filter="url(#prefix__prefix__filter0_d_2_670)"><path d="M17.002.455l.718.957 1.28.291-.837.883.073 1.137-1.235-.412-1.236.412.073-1.137-.837-.883 1.281-.291L17 .455zM27.5 7.925l.719.957 1.281.29-.837.884.073 1.137-1.236-.412-1.236.412.074-1.137-.838-.883 1.282-.291.718-.957zm-20.997 0l-.718.957-1.282.29.838.884-.074 1.137 1.236-.412 1.236.412-.074-1.137.838-.883-1.282-.291-.718-.957z" fill="#FFC900"/><path d="M13.002 23.766v.032c0 .156-.01.312-.03.467a3.646 3.646 0 01-1.33 2.334c-.173.148-.363.28-.565.393a6.574 6.574 0 01-.315.159 3.285 3.285 0 01-.325.13c-.11.043-.224.079-.34.108-.116.033-.235.06-.354.079a3.224 3.224 0 01-.365.047c-.25.024-.501.024-.75 0a3.168 3.168 0 01-.365-.047 2.981 2.981 0 01-.355-.08 2.892 2.892 0 01-.34-.107 3.334 3.334 0 01-.325-.13 6.706 6.706 0 01-.315-.16 3.538 3.538 0 01-.565-.392 3.646 3.646 0 01-1.33-2.334 3.65 3.65 0 010-.934 3.647 3.647 0 011.33-2.334 3.538 3.538 0 01.88-.55c.106-.05.214-.094.325-.132.11-.042.224-.078.34-.107a3.04 3.04 0 01.355-.08c.12-.022.242-.038.365-.046.249-.025.5-.025.75 0 .122.008.244.024.365.047.12.019.238.045.354.08.116.028.23.064.34.106.111.038.22.082.325.131.11.051.21.103.315.159.202.113.392.244.565.392.735.6 1.209 1.43 1.33 2.334.02.144.03.29.03.435z" fill="#AE44BD"/><path d="M11.642 26.6c0-.516-1.181-.934-2.639-.934-1.457 0-2.639.418-2.639.933 0 .516 1.182.934 2.64.934 1.457 0 2.638-.418 2.638-.934zm0-5.603c0-.516-1.181-.934-2.639-.934-1.457 0-2.639.418-2.639.934s1.182.934 2.64.934c1.457 0 2.638-.418 2.638-.934z" fill="#D7DEE2"/><path d="M29 23.798c0 .156-.01.312-.03.467a3.647 3.647 0 01-1.33 2.334 3.53 3.53 0 01-.564.393 6.625 6.625 0 01-.316.159 3.267 3.267 0 01-.324.13 2.88 2.88 0 01-.34.108c-.116.033-.235.06-.355.079-.12.023-.243.038-.365.047-.25.024-.5.024-.75 0a3.17 3.17 0 01-.365-.047h-.01a2.82 2.82 0 01-.345-.08 2.889 2.889 0 01-.34-.107 3.329 3.329 0 01-.325-.13 6.76 6.76 0 01-.315-.16 3.528 3.528 0 01-.565-.392 3.646 3.646 0 01-1.33-2.334 3.65 3.65 0 010-.934 3.646 3.646 0 011.33-2.334c.085-.07.175-.14.27-.206a5.88 5.88 0 01.295-.186c.1-.061.205-.108.315-.159a3.28 3.28 0 01.325-.13c.11-.043.224-.08.34-.108a3.4 3.4 0 01.335-.08h.02c.12-.022.242-.038.365-.046.25-.025.5-.025.75 0a3.1 3.1 0 01.365.047c.12.019.239.045.355.08.116.028.229.064.34.106.11.038.219.082.325.131a3.57 3.57 0 01.879.551c.735.6 1.209 1.43 1.33 2.334.02.155.03.311.03.467z" fill="#F88F00"/><path d="M27.5 23.798c0 .156-.01.312-.03.467a3.646 3.646 0 01-1.33 2.334c-.173.148-.362.28-.564.393a6.858 6.858 0 01-.315.158c-.106.05-.214.093-.325.131-.11.043-.224.079-.34.108-.113.033-.228.06-.345.079a2.802 2.802 0 01-.345-.08 2.852 2.852 0 01-.34-.107 3.28 3.28 0 01-.325-.13 6.858 6.858 0 01-.315-.16 3.528 3.528 0 01-.565-.392 3.646 3.646 0 01-1.33-2.334 3.65 3.65 0 010-.934 3.646 3.646 0 011.33-2.334c.085-.07.175-.14.27-.206a5.88 5.88 0 01.295-.186c.1-.061.205-.108.315-.159a3.33 3.33 0 01.325-.13 2.85 2.85 0 01.34-.108c.11-.032.222-.058.335-.08h.01c.117.02.232.046.345.08.116.029.23.065.34.107.11.038.22.082.325.131a3.579 3.579 0 01.88.551 3.65 3.65 0 011.33 2.334c.02.155.03.311.03.467z" fill="#FFC900"/><path d="M27.64 26.6c0-.516-1.182-.934-2.64-.934-1.457 0-2.639.418-2.639.933 0 .516 1.182.934 2.64.934 1.457 0 2.639-.418 2.639-.934zm0-5.603c0-.516-1.182-.934-2.64-.934-1.457 0-2.639.418-2.639.934s1.182.934 2.64.934c1.457 0 2.639-.418 2.639-.934z" fill="#D7DEE2"/><path d="M25 16.328c0 .156-.01.313-.03.467a3.647 3.647 0 01-1.33 2.335c-.173.148-.362.28-.564.392a6.299 6.299 0 01-.315.159 3.386 3.386 0 01-.325.13 2.84 2.84 0 01-.335.108h-.005c-.113.034-.228.06-.345.08h-.01a3.15 3.15 0 01-.365.046 2.36 2.36 0 01-.255.014.963.963 0 01-.12.004 1.31 1.31 0 01-.14-.004c-.078 0-.157-.005-.235-.014h-.02a3.877 3.877 0 01-.345-.047h-.02a3.472 3.472 0 01-.335-.08 2.863 2.863 0 01-.34-.107 3.38 3.38 0 01-.325-.13 6.431 6.431 0 01-.315-.16 3.944 3.944 0 01-.565-.392 3.647 3.647 0 01-1.33-2.334c-.04-.31-.04-.623 0-.933a3.648 3.648 0 011.33-2.335 3.941 3.941 0 01.565-.392c.1-.06.205-.107.315-.159a3.33 3.33 0 01.325-.13 2.84 2.84 0 01.335-.108h.005c.113-.033.229-.06.345-.08h.01c.12-.022.243-.038.365-.046.25-.025.5-.025.75 0 .123.008.244.024.365.047.12.02.239.046.355.08.116.028.23.064.34.106.11.038.22.082.325.131.11.052.21.103.315.16.202.112.39.243.565.391.735.6 1.208 1.43 1.33 2.335.02.154.03.31.03.466z" fill="#354AA3"/><path d="M23.5 16.328c0 .156-.01.312-.03.467a3.645 3.645 0 01-1.33 2.334c-.173.148-.362.28-.564.392a6.569 6.569 0 01-.315.16 3.34 3.34 0 01-.325.13 2.76 2.76 0 01-.335.107h-.005c-.11.034-.221.06-.335.08h-.02a3.414 3.414 0 01-.335-.08 2.827 2.827 0 01-.34-.107 3.33 3.33 0 01-.325-.13 6.431 6.431 0 01-.315-.16 3.944 3.944 0 01-.565-.392 3.647 3.647 0 01-1.33-2.334 3.65 3.65 0 010-.934 3.648 3.648 0 011.33-2.334 3.942 3.942 0 01.565-.392c.1-.061.205-.108.315-.16a3.38 3.38 0 01.325-.13c.11-.043.221-.078.335-.107h.005c.113-.034.229-.06.345-.08.117.02.232.046.345.08.116.029.23.064.34.107.111.038.22.082.325.13.11.052.21.104.315.16.202.113.391.244.565.392a3.65 3.65 0 011.33 2.334c.02.155.03.311.03.467z" fill="#5068C1"/><path d="M23.64 19.13c0-.516-1.181-.934-2.639-.934-1.457 0-2.64.418-2.64.933 0 .516 1.183.934 2.64.934 1.458 0 2.64-.418 2.64-.934zm0-5.603c0-.515-1.181-.933-2.639-.933-1.457 0-2.64.418-2.64.933 0 .516 1.183.934 2.64.934 1.458 0 2.64-.418 2.64-.934z" fill="#D7DEE2"/><path d="M20.861 8.858c0 .156-.01.312-.03.467a3.648 3.648 0 01-1.33 2.335 3.53 3.53 0 01-.565.392 6.475 6.475 0 01-.315.158c-.105.05-.214.093-.324.131a2.734 2.734 0 01-.34.107c-.117.034-.235.06-.355.08a3.15 3.15 0 01-.365.046 3.76 3.76 0 01-.75 0 3.177 3.177 0 01-.365-.046h-.01a2.201 2.201 0 01-.17-.038 1.177 1.177 0 01-.175-.042 2.889 2.889 0 01-.34-.107 3.92 3.92 0 01-.325-.13c-.105-.047-.215-.108-.315-.16-.1-.06-.195-.12-.29-.186a3.864 3.864 0 01-.275-.206 3.648 3.648 0 01-1.33-2.334 3.65 3.65 0 010-.934 3.648 3.648 0 011.33-2.334 3.47 3.47 0 01.565-.392c.1-.052.205-.108.315-.159.11-.051.215-.093.325-.13a2.83 2.83 0 01.34-.108 3.222 3.222 0 01.415-.089c.1-.017.202-.03.305-.037.093-.01.186-.014.28-.014a.973.973 0 01.19 0c.093 0 .187.005.28.014.122.008.244.024.365.047.12.019.238.045.355.079.115.029.229.065.34.107.11.038.219.082.324.131.11.051.21.103.315.159.202.113.391.244.565.392a3.65 3.65 0 011.33 2.334c.02.155.03.311.03.467z" fill="#D13D34"/><path d="M19.501 8.859c0 .156-.01.311-.03.466a3.648 3.648 0 01-1.33 2.335c-.173.148-.362.28-.564.392a6.574 6.574 0 01-.315.159 3.386 3.386 0 01-.325.13c-.11.043-.224.079-.34.108-.117.033-.235.06-.355.08a.198.198 0 01-.12 0h-.01a2.201 2.201 0 01-.17-.038 1.177 1.177 0 01-.175-.042 2.852 2.852 0 01-.34-.108 3.919 3.919 0 01-.325-.13c-.105-.047-.215-.108-.315-.159-.1-.06-.195-.121-.29-.187a3.836 3.836 0 01-.275-.205 3.648 3.648 0 01-1.33-2.335c-.04-.31-.04-.623 0-.933a3.648 3.648 0 011.33-2.335 3.47 3.47 0 01.565-.392c.1-.051.205-.107.315-.159.11-.051.215-.093.325-.13a2.83 2.83 0 01.34-.108c.116-.033.235-.06.355-.08a.198.198 0 01.12 0c.12.02.238.047.355.08.116.029.23.065.34.108.11.037.22.081.325.13.11.052.21.103.315.159.202.113.39.244.564.392.735.6 1.209 1.43 1.33 2.335.02.155.03.31.03.467z" fill="#F85B44"/><path d="M19.501 11.66c0-.516-1.181-.934-2.639-.934-1.457 0-2.639.418-2.639.934 0 .515 1.182.933 2.64.933 1.457 0 2.638-.418 2.638-.933zm0-5.603c0-.516-1.181-.934-2.639-.934-1.457 0-2.639.418-2.639.934s1.182.934 2.64.934c1.457 0 2.638-.418 2.638-.934z" fill="#D7DEE2"/><path d="M21.001 23.798c0 .117-.006.234-.02.35a.87.87 0 01-.01.112c-.01.08-.025.154-.04.23-.02.111-.049.222-.085.33-.03.109-.07.215-.115.318a2.82 2.82 0 01-.14.303 5.6 5.6 0 01-.17.295c-.045.065-.095.13-.145.196a2.13 2.13 0 01-.275.331 4.07 4.07 0 01-2.5 1.242 4.469 4.469 0 01-1 0 4.07 4.07 0 01-2.5-1.242 3.324 3.324 0 01-.59-.822 3.068 3.068 0 01-.139-.303 2.457 2.457 0 01-.115-.317 2.503 2.503 0 01-.085-.332 3.086 3.086 0 01-.04-.229.43.43 0 01-.005-.079 2.75 2.75 0 01-.025-.383v-.032c0-.107.006-.213.02-.318 0-.037.004-.075.01-.112.01-.08.025-.154.04-.229.02-.112.049-.223.085-.331.03-.108.07-.214.115-.318.04-.103.087-.204.14-.303a3.338 3.338 0 01.59-.822 4.07 4.07 0 012.5-1.242 4.492 4.492 0 011 0 4.07 4.07 0 012.5 1.242 3.332 3.332 0 01.589.822c.053.098.1.2.14.303.046.104.084.21.115.318.036.108.064.22.085.331.015.075.03.15.04.229a.879.879 0 01.01.112c.014.116.02.233.02.35z" fill="#00B7F6"/><path d="M21.001 23.798c0-1.361-.448-2.465-1-2.465s-1 1.104-1 2.465c0 1.361.448 2.465 1 2.465s1-1.104 1-2.465zm-5.999 0c0-1.361-.448-2.465-1-2.465-.553 0-1 1.104-1 2.465 0 1.361.447 2.465 1 2.465.552 0 1-1.104 1-2.465z" fill="#D7DEE2"/><path d="M17.002 16.328c0 .118-.006.235-.02.35a.828.828 0 01-.01.113c-.01.079-.025.154-.04.228-.021.113-.05.223-.085.332-.031.108-.07.214-.115.318a3.186 3.186 0 01-.14.303 5.8 5.8 0 01-.17.294c-.045.065-.095.13-.145.196-.08.119-.172.23-.275.332a4.068 4.068 0 01-2.5 1.241 4.469 4.469 0 01-1 0 4.068 4.068 0 01-2.5-1.241 3.31 3.31 0 01-.59-.822 3.186 3.186 0 01-.14-.303 2.436 2.436 0 01-.114-.318 2.482 2.482 0 01-.085-.332 2.524 2.524 0 01-.05-.34 3.09 3.09 0 010-.7c.009-.115.025-.229.05-.341.02-.113.049-.223.085-.332.03-.108.069-.214.115-.317a2.87 2.87 0 01.14-.304 3.31 3.31 0 01.59-.822 4.067 4.067 0 012.5-1.241 4.469 4.469 0 011 0 4.067 4.067 0 012.499 1.242 3.294 3.294 0 01.59.821c.052.099.099.2.14.304.046.103.084.209.115.317.035.109.064.22.084.332a2.638 2.638 0 01.05.34c.015.117.021.234.02.35z" fill="#5AB862"/><path d="M17.002 16.328c0-1.36-.448-2.464-1-2.464s-1 1.103-1 2.464.447 2.465 1 2.465c.552 0 1-1.104 1-2.465zm-6 0c0-1.36-.447-2.464-1-2.464-.552 0-1 1.103-1 2.464s.448 2.465 1 2.465c.553 0 1-1.104 1-2.465z" fill="#D7DEE2"/><path d="M19.478 1.563a.487.487 0 00-.358-.314L18.02 1l-.61-.813A.533.533 0 0017 0a.533.533 0 00-.409.187l-.61.812-1.1.25a.488.488 0 00-.359.314.444.444 0 00.103.45l.7.738-.059.944a.455.455 0 00.2.4c.133.094.31.12.467.067l1.068-.355 1.068.355a.53.53 0 00.467-.066.456.456 0 00.2-.4l-.06-.945.7-.738a.443.443 0 00.101-.45zm-1.688.712a.452.452 0 00-.125.338l.028.432-.523-.174a.526.526 0 00-.336 0l-.524.174.028-.432a.45.45 0 00-.124-.338l-.288-.302.476-.109a.5.5 0 00.291-.186l.309-.41.308.412a.5.5 0 00.292.186l.475.109-.287.3zm11.828 6.444l-1.1-.25-.61-.813a.533.533 0 00-.41-.187.533.533 0 00-.409.187l-.61.813-1.1.25a.488.488 0 00-.359.313.444.444 0 00.103.45l.7.738-.058.945a.456.456 0 00.2.4.53.53 0 00.467.067l1.068-.355 1.068.355a.53.53 0 00.468-.066.456.456 0 00.199-.4l-.06-.945.7-.738a.444.444 0 00.102-.449.487.487 0 00-.36-.314v-.001zm-1.33 1.027a.453.453 0 00-.125.337l.029.432-.524-.174a.526.526 0 00-.336 0l-.523.175.028-.433a.453.453 0 00-.125-.337l-.287-.303.475-.108a.502.502 0 00.292-.187l.308-.41.308.412c.07.093.174.16.292.187l.475.108-.287.3zm-23.52 1.418a.455.455 0 00.2.4.53.53 0 00.467.067l1.068-.355 1.068.356a.53.53 0 00.468-.067.455.455 0 00.199-.4l-.06-.944.699-.739a.444.444 0 00.103-.449.488.488 0 00-.36-.314l-1.1-.25-.609-.812a.533.533 0 00-.41-.187.534.534 0 00-.41.187l-.609.812-1.1.25a.488.488 0 00-.36.314.444.444 0 00.104.45l.7.738-.058.943zm1.135-1.83a.501.501 0 00.291-.186l.309-.41.308.411c.07.093.174.16.292.187l.475.108-.287.303a.452.452 0 00-.125.337l.028.433-.523-.175a.528.528 0 00-.336 0l-.523.175.027-.433a.452.452 0 00-.124-.337l-.287-.303.475-.11zm22.075 11.322l-.008-.009-.03-.023a4.534 4.534 0 00-.228-.171l-.1-.07a4.579 4.579 0 00-.237-.148l-.114-.065a3.815 3.815 0 00-.371-.18 4.631 4.631 0 00-.25-.1l-.145-.05a4.864 4.864 0 00-.244-.075c-.058-.016-.117-.029-.175-.042a5.408 5.408 0 00-.228-.05c-.079-.013-.154-.022-.231-.032-.062-.008-.123-.018-.186-.024a4.712 4.712 0 00-.861 0c-.063.006-.124.016-.186.024-.077.01-.154.019-.231.033-.076.013-.15.031-.228.05a3.413 3.413 0 00-.175.04 3.929 3.929 0 00-.244.076c-.03.01-.06.017-.088.027a4.989 4.989 0 00.521-.364l.03-.023c.01-.008.005-.007.008-.01.968-.794 1.522-1.939 1.522-3.142 0-1.203-.554-2.348-1.522-3.142l-.008-.009-.03-.023a4.487 4.487 0 00-.228-.171l-.1-.07a4.476 4.476 0 00-.237-.148c-.038-.022-.075-.044-.114-.065a4.065 4.065 0 00-.37-.18 4.574 4.574 0 00-.64-.225c-.058-.016-.116-.028-.174-.042-.076-.018-.15-.036-.229-.05-.078-.013-.154-.022-.23-.032-.063-.008-.124-.018-.186-.024a4.705 4.705 0 00-.86 0c-.064.006-.124.016-.187.024-.076.01-.154.019-.23.033-.077.013-.15.031-.229.049-.058.014-.117.026-.174.042a3.777 3.777 0 00-.245.075 4.175 4.175 0 00-.522.207c-.083.039-.164.08-.244.123-.039.021-.076.043-.114.065a4.485 4.485 0 00-.565.389l-.03.023c-.01.008-.005.007-.008.01A4.283 4.283 0 0017 14.413a4.523 4.523 0 00-.341-.52 4.106 4.106 0 00-.259-.306l-.024-.03c-.009-.008-.007-.003-.01-.006a4.463 4.463 0 00-.8-.667l.045.01c.057.016.116.028.174.042.076.017.15.036.229.05.079.014.153.022.23.032.062.008.123.018.186.024a4.741 4.741 0 00.862 0c.063-.006.124-.016.187-.024.076-.01.153-.019.229-.033.076-.013.153-.032.229-.049.059-.014.116-.026.174-.042.083-.022.164-.047.244-.075a5.224 5.224 0 00.522-.207 4.42 4.42 0 00.696-.406 4.72 4.72 0 00.228-.17l.03-.024.008-.01c.968-.793 1.522-1.938 1.522-3.141s-.554-2.348-1.522-3.142l-.008-.01-.03-.026a4.58 4.58 0 00-.229-.172l-.1-.07a4.805 4.805 0 00-1.361-.617 3.427 3.427 0 00-.175-.042c-.075-.018-.15-.036-.228-.05-.078-.014-.154-.023-.231-.033-.062-.007-.123-.018-.185-.023a4.875 4.875 0 00-.862 0c-.063.006-.123.016-.186.024a3.125 3.125 0 00-.459.083c-.058.013-.117.025-.174.041a3.728 3.728 0 00-.245.075 3.783 3.783 0 00-.395.15 3.967 3.967 0 00-.37.18 5.013 5.013 0 00-.452.283 4.16 4.16 0 00-.228.171l-.03.023c-.01.008-.005.007-.008.01-.967.794-1.522 1.938-1.522 3.142 0 1.203.555 2.347 1.522 3.141l.007.01.031.023c.074.06.15.116.228.171l.1.07.044.031c-1.68-.474-3.501.012-4.66 1.244-.002.003-.006.003-.008.006l-.025.029c-.064.069-.124.14-.183.213l-.076.093a4.244 4.244 0 00-.58 1.044 3.96 3.96 0 00-.08.228c-.017.054-.03.108-.045.162-.019.072-.038.14-.053.214a3.429 3.429 0 00-.035.215c-.009.057-.02.115-.026.174a3.868 3.868 0 000 .805c.006.059.017.116.026.174.01.071.02.143.035.215.014.071.034.14.053.214.014.054.028.108.044.162.025.077.05.153.08.228.018.047.035.093.054.136a5.478 5.478 0 00.168.352 4.055 4.055 0 00.435.65c.059.073.12.143.183.213.009.009.016.02.025.028.008.009.007.004.01.007a4.5 4.5 0 00.947.758c-.028-.01-.058-.017-.087-.027a4.817 4.817 0 00-.245-.075l-.174-.042c-.076-.017-.15-.035-.229-.05-.078-.013-.154-.022-.23-.032-.063-.008-.124-.018-.186-.024a3.962 3.962 0 00-.43-.023c-.144 0-.288.008-.43.021-.063.006-.124.016-.186.024-.077.01-.154.019-.23.033-.077.013-.15.031-.23.05a3.936 3.936 0 00-.174.04 3.915 3.915 0 00-.39.126 5.228 5.228 0 00-.376.157c-.083.039-.165.08-.245.123l-.114.065a3.325 3.325 0 00-.337.218 4.351 4.351 0 00-.227.171c-.01.008-.022.015-.031.023-.01.008-.005.007-.007.01-.968.794-1.523 1.938-1.523 3.141 0 1.204.555 2.348 1.523 3.143.002.002.003.006.007.009l.03.023c.074.06.15.116.228.171l.1.07a4.454 4.454 0 00.596.336l.127.058a4.394 4.394 0 00.395.149c.08.027.162.052.244.075l.174.042c.076.017.15.035.23.05.078.013.153.022.23.032.061.008.122.018.186.024a4.748 4.748 0 00.862 0c.062-.006.124-.016.186-.024.076-.01.153-.02.23-.033.076-.013.153-.032.229-.05a3.62 3.62 0 00.418-.117 5.442 5.442 0 00.522-.207 4.691 4.691 0 00.696-.405c.078-.055.154-.112.228-.171l.03-.023c.01-.008.005-.007.008-.01a4.278 4.278 0 001.021-1.225 4.614 4.614 0 00.341.52 4.108 4.108 0 00.26.306l.024.03c.008.008.007.004.01.007.85.903 2.076 1.421 3.364 1.421 1.289 0 2.515-.518 3.365-1.421l.01-.007.025-.029c.064-.069.124-.14.183-.213.026-.03.05-.062.076-.093a3.982 3.982 0 00.226-.328c.04-.063.079-.128.115-.193.257.464.603.88 1.022 1.226l.008.009.03.023c.074.06.15.116.228.171l.1.07a4.57 4.57 0 001.118.543c.08.027.162.052.244.075l.174.042c.076.017.15.035.229.05.08.013.154.022.23.032.062.008.123.018.186.024a4.755 4.755 0 00.862 0c.064-.006.125-.016.187-.024.076-.01.153-.02.23-.033.076-.013.153-.032.229-.05a3.69 3.69 0 00.418-.117c.05-.015.1-.031.145-.049a5.593 5.593 0 00.377-.157 4.803 4.803 0 00.595-.335 4.418 4.418 0 00.328-.242l.031-.023c.01-.008.005-.007.008-.01.967-.794 1.522-1.939 1.522-3.142 0-1.203-.555-2.347-1.522-3.142h-.002zm-5.689-.203a4.361 4.361 0 00-.228.171l-.03.023c-.01.008-.005.007-.008.01a4.258 4.258 0 00-1.022 1.227 4.674 4.674 0 00-.341-.52 4.2 4.2 0 00-.259-.306l-.025-.03c-.008-.008-.006-.003-.009-.006a4.472 4.472 0 00-.95-.759c.03.01.06.017.088.027.08.027.162.053.244.075.058.016.116.029.174.042.076.017.15.035.229.05.079.013.154.022.23.032.062.008.124.018.186.024a4.76 4.76 0 00.862 0c.063-.006.125-.016.187-.024.076-.01.153-.019.23-.033.076-.013.153-.032.229-.049.058-.014.116-.026.174-.042.082-.022.163-.047.244-.075.03-.01.06-.017.088-.027-.066.04-.13.08-.193.123-.033.019-.066.043-.1.067zm-1.818 3.75l-.015.096c-.018.11-.043.22-.073.327-.006.023-.012.047-.02.07a3.09 3.09 0 01-.349.76l-.013.018a3.064 3.064 0 010-3.352l.013.02c.15.238.268.494.35.76l.019.07c.03.107.055.216.073.326l.015.097c.04.268.04.54 0 .808zm-3.47 1.93c-.276 0-.5.209-.5.467v.43a3.593 3.593 0 01-1.834-.804 3.95 3.95 0 000-4.855 3.592 3.592 0 011.835-.803v.429c0 .258.223.467.5.467.276 0 .5-.209.5-.467v-.43a3.592 3.592 0 011.834.804 3.949 3.949 0 000 4.855 3.593 3.593 0 01-1.834.803v-.43c0-.257-.224-.466-.5-.466zm-3.011-.679a3.157 3.157 0 01-.35-.76l-.019-.069a2.974 2.974 0 01-.072-.327 2.774 2.774 0 01-.016-.905c.004-.032.01-.064.016-.097.018-.11.042-.219.072-.326l.019-.07c.082-.266.2-.521.35-.76l.012-.018a3.065 3.065 0 010 3.352l-.012-.02zm-2.01-4.798l-.008-.009-.03-.023a4.534 4.534 0 00-.228-.171l-.1-.07a3.69 3.69 0 00-.207-.131 4.718 4.718 0 003.192 0c-.357.212-.681.47-.962.767 0 .002-.007.003-.01.006a4.108 4.108 0 00-.208.241 4.264 4.264 0 00-.417.614 4.273 4.273 0 00-1.022-1.224zm-4.75.33a3.771 3.771 0 013.55 0l.017.011a3.77 3.77 0 01-3.59 0l.023-.01zm2.763-3.002a3.16 3.16 0 01-.35-.76c-.007-.022-.012-.046-.02-.069a3.028 3.028 0 01-.072-.327l-.016-.097a2.798 2.798 0 010-.807l.016-.097c.018-.11.043-.22.073-.327l.019-.07c.082-.266.2-.521.35-.76l.01-.018a3.065 3.065 0 010 3.353l-.01-.02zm.675-4.083a3.591 3.591 0 011.834-.803v.43c0 .257.224.466.5.466s.5-.21.5-.467v-.43a3.59 3.59 0 011.834.804 3.948 3.948 0 000 4.855 3.592 3.592 0 01-1.834.803v-.43c0-.257-.224-.466-.5-.466s-.5.209-.5.467v.43a3.593 3.593 0 01-1.834-.804 3.948 3.948 0 000-4.855zm5.346.77c.15.24.268.495.35.761l.019.07c.03.107.054.216.072.326.006.033.012.065.016.098.04.268.04.54 0 .807-.004.033-.01.065-.016.097-.018.11-.042.22-.072.327-.007.023-.012.047-.02.07a3.16 3.16 0 01-.35.76l-.011.018a3.065 3.065 0 010-3.353l.012.02zm2.01 4.8c.003.002.004.006.007.009l.03.023c.075.06.15.116.229.17.033.025.067.048.1.071.067.047.136.089.207.13a4.717 4.717 0 00-3.193 0c.357-.211.681-.47.962-.765l.01-.007a4.108 4.108 0 00.208-.241l.075-.094a3.862 3.862 0 00.227-.328c.04-.063.078-.128.114-.193.258.464.605.879 1.024 1.224zm4.75-.331a3.771 3.771 0 01-3.55 0l-.018-.01a3.771 3.771 0 013.59 0l-.023.01zm.45 1.847a3.771 3.771 0 013.549 0l.022.01a3.77 3.77 0 01-3.59 0l.018-.01zm-4-7.47a3.771 3.771 0 013.55 0l.022.01a3.77 3.77 0 01-3.59 0l.018-.01zm-.823.632a4.727 4.727 0 005.2 0c.462.478.761 1.075.86 1.713H24c-.277 0-.5.209-.5.466 0 .258.223.467.5.467h.46a3.163 3.163 0 01-.86 1.713 4.726 4.726 0 00-5.2 0 3.163 3.163 0 01-.86-1.713H18c.276 0 .5-.209.5-.467 0-.257-.224-.466-.5-.466h-.46a3.162 3.162 0 01.86-1.713zm.236-2.479a3.772 3.772 0 01-3.55 0l-.02-.01a3.77 3.77 0 013.59 0l-.02.01zm-3.55-5.623a3.771 3.771 0 013.55 0l.02.011a3.772 3.772 0 01-3.59 0l.02-.011zm-1.685 3.278h.46c.276 0 .5-.209.5-.466 0-.258-.224-.467-.5-.467h-.46a3.16 3.16 0 01.86-1.713 4.726 4.726 0 005.2 0c.461.478.76 1.075.86 1.713h-.46c-.276 0-.5.209-.5.467 0 .257.224.466.5.466h.46a3.165 3.165 0 01-.86 1.713 4.726 4.726 0 00-5.2 0 3.159 3.159 0 01-.86-1.713zM10.777 26.61a3.771 3.771 0 01-3.55 0l-.02-.01a3.77 3.77 0 013.59 0l-.02.01zm.825-.632a4.727 4.727 0 00-5.2 0 3.163 3.163 0 01-.859-1.713h.46c.276 0 .5-.209.5-.467 0-.257-.224-.466-.5-.466h-.46a3.163 3.163 0 01.86-1.713 4.726 4.726 0 005.2 0 3.18 3.18 0 01.86 1.712h-.46c-.277 0-.5.21-.5.467 0 .258.223.467.5.467h.46a3.161 3.161 0 01-.86 1.713zm15.173.632a3.771 3.771 0 01-3.55 0l-.02-.01a3.77 3.77 0 013.59 0l-.02.01zm.825-.632a4.727 4.727 0 00-5.2 0 3.163 3.163 0 01-.86-1.713H22c.277 0 .5-.209.5-.467 0-.257-.223-.466-.5-.466h-.46a3.163 3.163 0 01.86-1.713 4.726 4.726 0 005.2 0c.462.478.762 1.075.86 1.712H28c-.276 0-.5.21-.5.467 0 .258.224.467.5.467h.46a3.161 3.161 0 01-.86 1.713z" fill="#000"/></g><defs><filter id="prefix__prefix__filter0_d_2_670" x="0" y="0" width="34" height="36" filterUnits="userSpaceOnUse" color-interpolation-filters="sRGB"><feFlood flood-opacity="0" result="BackgroundImageFix"/><feColorMatrix in="SourceAlpha" values="0 0 0 0 0 0 0 0 0 0 0 0 0 0 0 0 0 0 127 0" result="hardAlpha"/><feOffset dy="4"/><feGaussianBlur stdDeviation="2"/><feColorMatrix values="0 0 0 0 0 0 0 0 0 0 0 0 0 0 0 0 0 0 0.25 0"/><feBlend in2="BackgroundImageFix" result="effect1_dropShadow_2_670"/><feBlend in="SourceGraphic" in2="effect1_dropShadow_2_670" result="shape"/></filter></defs></svg>