<svg width="40" height="20" viewBox="0 0 40 20" fill="none" xmlns="http://www.w3.org/2000/svg">
<path d="M36.0938 10.0001C34.397 10.0001 21.732 10.0001 20 10.0001V18.0001H36.0938C36.957 18.0001 37.6562 17.4034 37.6562 16.6667V11.3334C37.6562 10.5967 36.957 10.0001 36.0938 10.0001Z" fill="#FF7B79"/>
<path d="M39.2188 12.6667V15.3334H37.6562C36.793 15.3334 36.0938 14.7367 36.0938 14C36.0938 13.2634 36.793 12.6667 37.6562 12.6667H39.2188Z" fill="#FFDA8F"/>
<path d="M31.1719 6.00006H34.2969V10.0001H31.1719V6.00006Z" fill="#EEFAFF"/>
<path d="M32.7344 19.3334C33.5973 19.3334 34.2969 18.7365 34.2969 18.0001C34.2969 17.2637 33.5973 16.6667 32.7344 16.6667C31.8714 16.6667 31.1719 17.2637 31.1719 18.0001C31.1719 18.7365 31.8714 19.3334 32.7344 19.3334Z" fill="#EEFAFF"/>
<path d="M29.6094 0.666687V3.33335C27.5179 3.33335 21.9569 3.33335 20 3.33335V0.666687H29.6094Z" fill="#FF7B79"/>
<path d="M23.125 3.33337H28.0469V10H23.125V3.33337Z" fill="#EEFAFF"/>
<path d="M24.9219 19.3334C25.7848 19.3334 26.4844 18.7365 26.4844 18.0001C26.4844 17.2637 25.7848 16.6667 24.9219 16.6667C24.0589 16.6667 23.3594 17.2637 23.3594 18.0001C23.3594 18.7365 24.0589 19.3334 24.9219 19.3334Z" fill="#EEFAFF"/>
<path d="M20 3.33337H23.125V10H20V3.33337Z" fill="#8690A6"/>
<path d="M0.78125 14.0001V18.0001H16.875C16.875 17.3934 16.875 15.0515 16.875 14.0001H0.78125Z" fill="#FF7B79"/>
<path d="M16.875 11.3334V14.0001H0.78125V11.3334H16.875Z" fill="#EEFAFF"/>
<path d="M0.78125 3.33335C0.78125 1.86069 2.41484 0.666687 4.14062 0.666687H13.75C15.4758 0.666687 16.875 1.86069 16.875 3.33335C15.9046 3.33335 15.6748 4.00002 14.6875 4.00002C13.7031 4.00002 13.7031 3.33335 12.7344 3.33335C11.7656 3.33335 11.7656 4.00002 10.7812 4.00002C9.79688 4.00002 9.79688 3.33335 8.82812 3.33335C7.85938 3.33335 7.85938 4.00002 6.875 4.00002C5.89062 4.00002 5.89062 3.33335 4.92188 3.33335C3.95312 3.33335 3.71875 4.00002 2.73438 4.00002C1.74984 4.00002 1.75031 3.33335 0.78125 3.33335Z" fill="#FF7B79"/>
<path d="M11.9531 19.3334C12.8161 19.3334 13.5156 18.7365 13.5156 18.0001C13.5156 17.2637 12.8161 16.6667 11.9531 16.6667C11.0902 16.6667 10.3906 17.2637 10.3906 18.0001C10.3906 18.7365 11.0902 19.3334 11.9531 19.3334Z" fill="#EEFAFF"/>
<path d="M5.70312 19.3334C6.56607 19.3334 7.26562 18.7365 7.26562 18.0001C7.26562 17.2637 6.56607 16.6667 5.70312 16.6667C4.84018 16.6667 4.14062 17.2637 4.14062 18.0001C4.14062 18.7365 4.84018 19.3334 5.70312 19.3334Z" fill="#EEFAFF"/>
<path d="M39.2188 12H38.4375V11.3333C38.4375 10.2305 37.3861 9.33333 36.0938 9.33333H35.0781V6C35.0781 5.63187 34.7284 5.33333 34.2969 5.33333H31.1719C30.7404 5.33333 30.3906 5.63187 30.3906 6V9.33333H28.8281V4H29.6094C30.0409 4 30.3906 3.70147 30.3906 3.33333V0.666667C30.3906 0.298533 30.0409 0 29.6094 0H20C19.5685 0 19.2188 0.298533 19.2188 0.666667V14.6667H17.6562V11.3333C17.6562 10.9652 17.3065 10.6667 16.875 10.6667H16.0938V4.29067C16.428 4.111 16.5838 4 16.875 4C17.3065 4 17.6562 3.70147 17.6562 3.33333C17.6562 1.49533 15.9039 0 13.75 0H4.14062C3.11234 0 2.07305 0.3476 1.28914 0.953733C0.457812 1.59653 0 2.44167 0 3.33333C0 3.70147 0.349766 4 0.78125 4C0.989609 4 1.05258 4.04293 1.26094 4.18513C1.34578 4.24307 1.44531 4.31007 1.5625 4.3754V10.6667H0.78125C0.349766 10.6667 0 10.9652 0 11.3333V18C0 18.3681 0.349766 18.6667 0.78125 18.6667H3.49375C3.81625 19.4426 4.68461 20 5.70312 20C6.72164 20 7.59 19.4426 7.9125 18.6667H9.74375C10.0662 19.4426 10.9346 20 11.9531 20C12.9716 20 13.84 19.4426 14.1625 18.6667H16.875C17.3065 18.6667 17.6562 18.3681 17.6562 18V16H19.2188V18C19.2188 18.3681 19.5685 18.6667 20 18.6667H22.7125C23.035 19.4426 23.9034 20 24.9219 20C25.9404 20 26.8088 19.4426 27.1313 18.6667H30.525C30.8475 19.4426 31.7159 20 32.7344 20C33.7529 20 34.6213 19.4426 34.9437 18.6667H36.0938C37.3861 18.6667 38.4375 17.7695 38.4375 16.6667V16H39.2188C39.6502 16 40 15.7015 40 15.3333V12.6667C40 12.2985 39.6502 12 39.2188 12ZM4.14062 1.33333H13.75C14.8284 1.33333 15.7389 1.958 16.0109 2.80553C15.368 3.02267 15.16 3.33333 14.6875 3.33333C14.4674 3.33333 14.3976 3.28567 14.1902 3.14407C13.9117 2.954 13.4909 2.66667 12.7344 2.66667C11.9779 2.66667 11.557 2.954 11.2786 3.14407C11.0712 3.28567 11.0013 3.33333 10.7812 3.33333C10.5612 3.33333 10.4913 3.28567 10.2839 3.14407C10.0055 2.954 9.58461 2.66667 8.82812 2.66667C8.07164 2.66667 7.65078 2.954 7.37234 3.14407C7.16492 3.28567 7.09508 3.33333 6.875 3.33333C6.65492 3.33333 6.58508 3.28567 6.37766 3.14407C6.09922 2.954 5.67836 2.66667 4.92188 2.66667C4.2093 2.66667 3.74969 2.91973 3.41406 3.10447C3.12586 3.26313 2.98773 3.33333 2.73438 3.33333C2.73039 3.33333 2.72711 3.33287 2.7232 3.3328C2.6268 3.28693 2.51773 3.25847 2.40172 3.2512C2.22977 3.15107 2.0093 2.9592 1.65945 2.82253C1.97477 1.99573 3.01586 1.33333 4.14062 1.33333ZM3.125 4.64033C3.63266 4.5706 3.98781 4.3754 4.26117 4.22487C4.54437 4.06893 4.67977 4 4.92188 4C5.13023 4 5.19312 4.043 5.40156 4.1852C5.68242 4.37693 6.1068 4.66667 6.875 4.66667C7.6432 4.66667 8.06758 4.37693 8.34844 4.1852C8.55688 4.04293 8.61977 4 8.82812 4C9.03648 4 9.09937 4.043 9.30781 4.1852C9.58867 4.37693 10.013 4.66667 10.7812 4.66667C11.5495 4.66667 11.9738 4.37693 12.2547 4.1852C12.4631 4.04293 12.526 4 12.7344 4C12.9427 4 13.0056 4.043 13.2141 4.1852C13.4752 4.36347 13.8609 4.62613 14.5312 4.6622V10.6667H12.7344V8.66667C12.7344 8.29853 12.3846 8 11.9531 8C11.5216 8 11.1719 8.29853 11.1719 8.66667V10.6667H9.60938V8.66667C9.60938 8.29853 9.25961 8 8.82812 8C8.39664 8 8.04688 8.29853 8.04688 8.66667V10.6667H6.48438V8.66667C6.48438 8.29853 6.13461 8 5.70312 8C5.27164 8 4.92188 8.29853 4.92188 8.66667V10.6667H3.125V4.64033ZM5.70312 18.6667C5.27234 18.6667 4.92188 18.3676 4.92188 18C4.92188 17.6324 5.27234 17.3333 5.70312 17.3333C6.13391 17.3333 6.48438 17.6324 6.48438 18C6.48438 18.3676 6.13391 18.6667 5.70312 18.6667ZM11.9531 18.6667C11.5223 18.6667 11.1719 18.3676 11.1719 18C11.1719 17.6324 11.5223 17.3333 11.9531 17.3333C12.3839 17.3333 12.7344 17.6324 12.7344 18C12.7344 18.3676 12.3839 18.6667 11.9531 18.6667ZM16.0938 17.3333H14.1625C13.84 16.5574 12.9716 16 11.9531 16C10.9346 16 10.0662 16.5574 9.74375 17.3333H7.9125C7.59 16.5574 6.72164 16 5.70312 16C4.68461 16 3.81625 16.5574 3.49375 17.3333H1.5625V14.6667H5.31242C5.74391 14.6667 6.09367 14.3681 6.09367 14C6.09367 13.6319 5.74391 13.3333 5.31242 13.3333H1.5625V12H16.0938V13.3333H12.3438C11.9123 13.3333 11.5626 13.6319 11.5626 14C11.5626 14.3681 11.9123 14.6667 12.3438 14.6667H16.0938V17.3333ZM31.9531 6.66667H33.5156V9.33333H31.9531V6.66667ZM27.2656 9.33333H23.9062V4H27.2656V9.33333ZM20.7812 9.33333V4H22.3438V9.33333H20.7812ZM20.7812 1.33333H28.8281V2.66667H20.7812V1.33333ZM24.9219 18.6667C24.4911 18.6667 24.1406 18.3676 24.1406 18C24.1406 17.6324 24.4911 17.3333 24.9219 17.3333C25.3527 17.3333 25.7031 17.6324 25.7031 18C25.7031 18.3676 25.3527 18.6667 24.9219 18.6667ZM32.7344 18.6667C32.3036 18.6667 31.9531 18.3676 31.9531 18C31.9531 17.6324 32.3036 17.3333 32.7344 17.3333C33.1652 17.3333 33.5156 17.6324 33.5156 18C33.5156 18.3676 33.1652 18.6667 32.7344 18.6667ZM36.0938 17.3333H34.9437C34.6213 16.5574 33.7529 16 32.7344 16C31.7159 16 30.8475 16.5574 30.525 17.3333H27.1313C26.8088 16.5574 25.9404 16 24.9219 16C23.9034 16 23.035 16.5574 22.7125 17.3333H20.7812V10.6667H36.0938C36.5245 10.6667 36.875 10.9657 36.875 11.3333V12.1147C35.9657 12.3899 35.3125 13.1309 35.3125 14C35.3125 14.8691 35.9657 15.6101 36.875 15.8853V16.6667C36.875 17.0343 36.5245 17.3333 36.0938 17.3333ZM38.4375 14.6667H37.6562C37.2255 14.6667 36.875 14.3676 36.875 14C36.875 13.6324 37.2255 13.3333 37.6562 13.3333H38.4375V14.6667Z" fill="black"/>
<path d="M29.6094 12.0001C29.1779 12.0001 28.8281 12.2986 28.8281 12.6667V14.0001C28.8281 14.3682 29.1779 14.6667 29.6094 14.6667C30.0409 14.6667 30.3906 14.3682 30.3906 14.0001V12.6667C30.3906 12.2986 30.0409 12.0001 29.6094 12.0001Z" fill="black"/>
<path d="M32.7344 12.0001C32.3029 12.0001 31.9531 12.2986 31.9531 12.6667V14.0001C31.9531 14.3682 32.3029 14.6667 32.7344 14.6667C33.1659 14.6667 33.5156 14.3682 33.5156 14.0001V12.6667C33.5156 12.2986 33.1659 12.0001 32.7344 12.0001Z" fill="black"/>
<path d="M26.4844 12.0001C26.0529 12.0001 25.7031 12.2986 25.7031 12.6667V14.0001C25.7031 14.3682 26.0529 14.6667 26.4844 14.6667C26.9159 14.6667 27.2656 14.3682 27.2656 14.0001V12.6667C27.2656 12.2986 26.9159 12.0001 26.4844 12.0001Z" fill="black"/>
<path d="M23.3594 12.0001C22.9279 12.0001 22.5781 12.2986 22.5781 12.6667V14.0001C22.5781 14.3682 22.9279 14.6667 23.3594 14.6667C23.7909 14.6667 24.1406 14.3682 24.1406 14.0001V12.6667C24.1406 12.2986 23.7909 12.0001 23.3594 12.0001Z" fill="black"/>
<path d="M8.82812 14.6666C9.2596 14.6666 9.60938 14.3682 9.60938 14C9.60938 13.6318 9.2596 13.3333 8.82812 13.3333C8.39665 13.3333 8.04688 13.6318 8.04688 14C8.04688 14.3682 8.39665 14.6666 8.82812 14.6666Z" fill="black"/>
</svg>
